<svg xmlns="http://www.w3.org/2000/svg" xmlns:xlink="http://www.w3.org/1999/xlink" width="144" height="137"><svg width="16" height="13.3"><path d="M10.1 0H16v13.3L10.1 0zM5.9 0H0v13.3L5.9 0zM8 4.9l3.8 8.4H9.2l-1.1-2.7H5.4L8 4.9z" fill="#989898"/></svg><svg width="13.604" height="13.6" x="16" y="14"><path d="M10.8 13.6H2.9A2.9 2.9 0 0 1 0 10.7V2.9A2.9 2.9 0 0 1 2.9 0h7.8a2.9 2.9 0 0 1 2.9 2.9v7.8a2.76 2.76 0 0 1-2.8 2.9zm-4.9-2h2v-2h-2v2zm1-9.8l-3 3.9h2v2.9h2V5.7h2l-3-3.9z" fill="#4e4e4e"/></svg><svg width="12" height="12" x="30" y="28"><path d="M12 10.5a1.54 1.54 0 0 1-1.5 1.5h-9A1.54 1.54 0 0 1 0 10.5v-9A1.54 1.54 0 0 1 1.5 0h9A1.54 1.54 0 0 1 12 1.5v9z" fill="#707070"/><path d="M4.9 9.5a.897.897 0 0 1-.7-.3L2 7a1 1 0 1 1 1.4-1.4l1.5 1.5 4-4a1 1 0 1 1 1.4 1.4L5.5 9.3a1.068 1.068 0 0 1-.6.2z" fill="#f5f5f5"/></svg><svg width="16" height="14" x="42" y="40"><path d="M.6 12.6L13.2 0l1.4 1.4L2 14zM0 7.2a7.44 7.44 0 0 0 1.8 2.5L4 7.5v-.403A3.9 3.9 0 0 1 8 3.3c.1 0 .1 0 .3.1l1.1-1.1c-.4 0-.9-.1-1.4-.1a8.6 8.6 0 0 0-8 5zm12-.6v.403A3.9 3.9 0 0 1 8 10.8a.37.37 0 0 1-.3-.1l-1.1 1.1c.4 0 .9.1 1.4.1a8.6 8.6 0 0 0 8-5 7.44 7.44 0 0 0-1.8-2.5L12 6.6z" fill="#4e4e4e"/></svg><svg width="16" height="10.004" x="58" y="54"><g fill="#4e4e4e"><path d="M8.4 3.324A1.8 1.8 0 0 0 8 6.902a2 2 0 0 0 2-1.8 1.801 1.801 0 0 0-1.6-1.778z"/><path d="M8 .002a8.6 8.6 0 0 0-8 5 8.6 8.6 0 0 0 8 5 8.6 8.6 0 0 0 8-5 8.6 8.6 0 0 0-8-5zm0 8.9h-.005A3.8 3.8 0 1 1 8 1.302h.005A3.8 3.8 0 1 1 8 8.902z"/></g></svg><svg width="15.9" height="16" x="74" y="65"><path d="M15 15.9a.9.9 0 0 0 .9-.9V.9A.9.9 0 0 0 15 0H.9a.9.9 0 0 0-.9.9V15a.9.9 0 0 0 .9.9H15z" fill="#3b5997"/><path d="M11 15.9V9.8h2.1l.3-2.4H11V5.9c0-.7.2-1.2 1.2-1.2h1.3V2.6c-.2 0-1-.1-1.8-.1a2.92 2.92 0 0 0-3.1 3.2v1.8H6.4v2.4h2.1V16H11v-.1z" fill="#ffffff"/></svg><svg width="16" height="16" x="90" y="81"><path fill="#ffffff" d="M15.1 0H.9C.4 0 0 .4 0 .9v14.2c0 .5.4.9.9.9H9v-6H7V8h2V5.3c.1-1.6 1.5-2.8 3.1-2.7.9 0 1.9.1 1.9.1V5h-1.4c-1 0-1.6.3-1.6 1v2h2.8l-.3 2H11v6h4.1c.5 0 .9-.4.9-.9V.9c0-.5-.4-.9-.9-.9z"/></svg><svg width="15.811" height="16.003" x="106" y="97"><path d="M3.201 7.961L3.2 7.9c.008-.506.116-.984.27-1.44L.822 4.485A7.955 7.955 0 0 0 0 8c0 1.205.274 2.343.751 3.368l2.706-2.019c-.145-.44-.248-.9-.256-1.388z" fill="#fbbc05"/><path d="M.822 4.485L3.47 6.46C4.111 4.561 5.89 3.191 8 3.2a4.431 4.431 0 0 1 3 1.1L13.4 2A8.536 8.536 0 0 0 8 0 7.992 7.992 0 0 0 .822 4.485z" fill="#ea4335"/><path d="M11.218 11.545C10.425 12.228 9.317 12.6 8 12.6c-2.12.036-3.917-1.342-4.545-3.257L.75 11.366A7.995 7.995 0 0 0 8 16a7.577 7.577 0 0 0 5.825-2.483l-2.607-1.972z" fill="#34a853"/><path d="M15.6 6.4H8v3.1h4.4a3.55 3.55 0 0 1-1.692 2.415l2.693 2.037A7.573 7.573 0 0 0 15.8 8a7.767 7.767 0 0 0-.2-1.6z" fill="#4285f4"/></svg><svg width="12" height="15.997" x="122" y="114"><path d="M10.3 6.397v-2.1a4.3 4.3 0 0 0-8.6 0v2.1H0v9.6h12v-9.6h-1.7zm-3.8 3.9v2.8a.46.46 0 0 1-.5.4c-.2 0-.5-.2-.5-.4v-2.8a.75.75 0 0 1-.5-.7.82.82 0 0 1 .9-.8.88.88 0 0 1 .9.8.6.6 0 0 1-.3.7zm3.2-3.9H2.3v-2.1a3.7 3.7 0 0 1 7.4 0v2.1z" fill="#4b4b4b"/></svg><svg width="10" height="6.7" x="134" y="130"><path fill="#4b4b4b" d="M9.2 0L3.906 5.206.7 2l-.7.7 3.2 3.2.8.8 6-6z"/></svg></svg>